<?xml version="1.0" encoding="iso-8859-1"?>
<!-- Generator: Adobe Illustrator 19.0.0, SVG Export Plug-In . SVG Version: 6.00 Build 0)  -->
<svg xmlns="http://www.w3.org/2000/svg" xmlns:xlink="http://www.w3.org/1999/xlink" version="1.1" id="Layer_1" x="0px" y="0px" viewBox="0 0 454.479 454.479" style="enable-background:new 0 0 454.479 454.479;" xml:space="preserve" width="512" height="512">
<metadata><?xpacket begin="﻿" id="W5M0MpCehiHzreSzNTczkc9d"?>
<x:xmpmeta xmlns:x="adobe:ns:meta/" x:xmptk="Adobe XMP Core 5.6-c145 79.163499, 2018/08/13-16:40:22        ">
   <rdf:RDF xmlns:rdf="http://www.w3.org/1999/02/22-rdf-syntax-ns#">
      <rdf:Description rdf:about=""
            xmlns:xmp="http://ns.adobe.com/xap/1.0/"
            xmlns:xmpMM="http://ns.adobe.com/xap/1.0/mm/"
            xmlns:stEvt="http://ns.adobe.com/xap/1.0/sType/ResourceEvent#"
            xmlns:dc="http://purl.org/dc/elements/1.1/">
         <xmp:MetadataDate>2018-09-21T11:09:21+05:30</xmp:MetadataDate>
         <xmp:Label>$$$/Bridge/Preferences/Label/Blue=Review</xmp:Label>
         <xmpMM:InstanceID>xmp.iid:f56b4b68-bd5f-e54c-a97d-60bad7b43213</xmpMM:InstanceID>
         <xmpMM:DocumentID>xmp.did:01c8e869-045d-462f-a7a5-9e6fe0736de0</xmpMM:DocumentID>
         <xmpMM:OriginalDocumentID>xmp.did:01c8e869-045d-462f-a7a5-9e6fe0736de0</xmpMM:OriginalDocumentID>
         <xmpMM:History>
            <rdf:Seq>
               <rdf:li>
                  <rdf:Description>
                     <stEvt:action>saved</stEvt:action>
                     <stEvt:instanceID>xmp.iid:01c8e869-045d-462f-a7a5-9e6fe0736de0</stEvt:instanceID>
                     <stEvt:when>2017-11-02T15:07:11+05:30</stEvt:when>
                     <stEvt:softwareAgent>Adobe Bridge CC 2018 (Macintosh)</stEvt:softwareAgent>
                     <stEvt:changed>/metadata</stEvt:changed>
                  </rdf:Description>
               </rdf:li>
               <rdf:li>
                  <rdf:Description>
                     <stEvt:action>saved</stEvt:action>
                     <stEvt:instanceID>xmp.iid:f56b4b68-bd5f-e54c-a97d-60bad7b43213</stEvt:instanceID>
                     <stEvt:when>2018-09-21T11:09:21+05:30</stEvt:when>
                     <stEvt:softwareAgent>Adobe Bridge CC 2019 (Windows)</stEvt:softwareAgent>
                     <stEvt:changed>/metadata</stEvt:changed>
                  </rdf:Description>
               </rdf:li>
            </rdf:Seq>
         </xmpMM:History>
         <xmpMM:PreservedFileName>taj-mahal.svg</xmpMM:PreservedFileName>
         <dc:creator>
            <rdf:Seq>
               <rdf:li>jvjhb</rdf:li>
            </rdf:Seq>
         </dc:creator>
         <dc:subject>
            <rdf:Bag>
               <rdf:li>ABC</rdf:li>
            </rdf:Bag>
         </dc:subject>
      </rdf:Description>
   </rdf:RDF>
</x:xmpmeta>
                                                                                                    
                                                                                                    
                                                                                                    
                                                                                                    
                                                                                                    
                                                                                                    
                                                                                                    
                                                                                                    
                                                                                                    
                                                                                                    
                                                                                                    
                                                                                                    
                                                    
<?xpacket end="w"?></metadata>
<g>
	<rect x="7.5" y="396.198" style="fill:#0FBC30;" width="439.478" height="25.499"/>
	<polygon style="fill:#CCCCCC;" points="421.302,295.458 423.442,393.198 389.042,393.198 391.182,295.458  "/>
	<polygon style="fill:#E6E6E6;" points="420.052,238.458 421.302,295.458 391.182,295.458 392.432,238.458  "/>
	<polygon style="fill:#E6E6E6;" points="418.852,183.458 420.052,238.458 392.432,238.458 393.632,183.458  "/>
	<path style="fill:#E6E6E6;" d="M418.412,163.368l0.44,20.09h-25.22l0.44-20.09c0.14-6.62,5.55-11.91,12.17-11.91   S418.262,156.748,418.412,163.368z"/>
	<path style="fill:#FFD039;" d="M330.782,32.778c27.75,0,50.25,22.5,50.25,50.25s-22.5,50.25-50.25,50.25s-50.24-22.5-50.24-50.25   S303.032,32.778,330.782,32.778z"/>
	<polygon style="fill:#E6E6E6;" points="351.302,293.798 351.302,393.198 276.942,393.198 276.942,293.798 297.642,293.798    343.842,293.798  "/>
	<path style="fill:#E6E6E6;" d="M320.742,248.088c12.82,0,23.21,10.4,23.21,23.22c0,0.78-0.03,1.55-0.11,2.3v-2.3h-46.2v2.37   c-0.08-0.77-0.12-1.57-0.12-2.37C297.522,258.488,307.922,248.088,320.742,248.088z"/>
	<polygon style="fill:#CCCCCC;" points="343.842,273.608 343.842,293.798 297.642,293.798 297.642,273.678 297.642,271.308    343.842,271.308  "/>
	<path style="fill:#E6E6E6;" d="M227.482,156.858l2.09,2.09c9.46,9.46,19.87,17.88,30.78,25.61c14.97,10.62,24.63,28.25,24.19,48.1   c-0.22,9.83-2.96,19.1-7.6,27.16v-0.12h-99.4v0.21c-4.85-8.41-7.62-18.16-7.62-28.56c0-19.75,9.99-37.17,25.2-47.47   c10.74-7.29,20.61-15.75,29.78-24.93l2.34-2.33L227.482,156.858z"/>
	<path style="fill:#E6E6E6;" d="M276.942,293.798v99.4h-25.06v-48.6c0-0.01,0-0.03,0-0.03c0-25.28-24.64-30.11-24.64-30.11   s-24.65,4.83-24.65,30.11c0,0,0,0.02,0,0.03v48.6h-25.05v-99.4H276.942z"/>
	<polygon style="fill:#CCCCCC;" points="276.942,259.818 276.942,293.798 177.542,293.798 177.542,259.908 177.542,259.698    276.942,259.698  "/>
	<path style="fill:#CCCCCC;" d="M251.882,344.598v48.6h-49.29v-48.6c0-0.01,0-0.03,0-0.03c0-25.28,24.65-30.11,24.65-30.11   s24.64,4.83,24.64,30.11C251.882,344.568,251.882,344.588,251.882,344.598z"/>
	<polygon style="fill:#E6E6E6;" points="177.542,293.798 177.542,393.198 103.172,393.198 103.172,293.798 110.642,293.798    156.842,293.798  "/>
	<path style="fill:#E6E6E6;" d="M133.742,248.088c12.82,0,23.21,10.4,23.21,23.22c0,0.78-0.03,1.55-0.11,2.3v-2.3h-46.2v2.37   c-0.08-0.77-0.12-1.57-0.12-2.37C110.522,258.488,120.922,248.088,133.742,248.088z"/>
	<polygon style="fill:#CCCCCC;" points="156.842,273.608 156.842,293.798 110.642,293.798 110.642,273.678 110.642,271.308    156.842,271.308  "/>
	<polygon style="fill:#CCCCCC;" points="63.302,295.458 65.442,393.198 31.042,393.198 33.182,295.458  "/>
	<polygon style="fill:#E6E6E6;" points="62.052,238.458 63.302,295.458 33.182,295.458 34.432,238.458  "/>
	<polygon style="fill:#E6E6E6;" points="60.852,183.458 62.052,238.458 34.432,238.458 35.632,183.458  "/>
	<path style="fill:#E6E6E6;" d="M60.412,163.368l0.44,20.09h-25.22l0.44-20.09c0.14-6.62,5.55-11.91,12.17-11.91   S60.262,156.748,60.412,163.368z"/>
	<g>
		<path style="fill:#333333;" d="M128.239,310.958c-4.143,0-7.5,3.358-7.5,7.5v16c0,4.142,3.357,7.5,7.5,7.5s7.5-3.358,7.5-7.5v-16    C135.739,314.316,132.382,310.958,128.239,310.958z"/>
		<path style="fill:#333333;" d="M152.239,310.958c-4.143,0-7.5,3.358-7.5,7.5v16c0,4.142,3.357,7.5,7.5,7.5s7.5-3.358,7.5-7.5v-16    C159.739,314.316,156.382,310.958,152.239,310.958z"/>
		<path style="fill:#333333;" d="M128.239,346.958c-4.143,0-7.5,3.358-7.5,7.5v16c0,4.142,3.357,7.5,7.5,7.5s7.5-3.358,7.5-7.5v-16    C135.739,350.316,132.382,346.958,128.239,346.958z"/>
		<path style="fill:#333333;" d="M152.239,346.958c-4.143,0-7.5,3.358-7.5,7.5v16c0,4.142,3.357,7.5,7.5,7.5s7.5-3.358,7.5-7.5v-16    C159.739,350.316,156.382,346.958,152.239,346.958z"/>
		<path style="fill:#333333;" d="M302.239,341.958c4.143,0,7.5-3.358,7.5-7.5v-16c0-4.142-3.357-7.5-7.5-7.5s-7.5,3.358-7.5,7.5v16    C294.739,338.601,298.097,341.958,302.239,341.958z"/>
		<path style="fill:#333333;" d="M326.239,341.958c4.143,0,7.5-3.358,7.5-7.5v-16c0-4.142-3.357-7.5-7.5-7.5s-7.5,3.358-7.5,7.5v16    C318.739,338.601,322.097,341.958,326.239,341.958z"/>
		<path style="fill:#333333;" d="M302.239,377.958c4.143,0,7.5-3.358,7.5-7.5v-16c0-4.142-3.357-7.5-7.5-7.5s-7.5,3.358-7.5,7.5v16    C294.739,374.601,298.097,377.958,302.239,377.958z"/>
		<path style="fill:#333333;" d="M326.239,377.958c4.143,0,7.5-3.358,7.5-7.5v-16c0-4.142-3.357-7.5-7.5-7.5s-7.5,3.358-7.5,7.5v16    C318.739,374.601,322.097,377.958,326.239,377.958z"/>
		<path style="fill:#333333;" d="M330.786,140.777c31.842,0,57.747-25.905,57.747-57.748s-25.905-57.748-57.747-57.748    c-31.843,0-57.748,25.905-57.748,57.748S298.943,140.777,330.786,140.777z M330.786,40.282c23.571,0,42.747,19.176,42.747,42.748    s-19.176,42.748-42.747,42.748s-42.748-19.176-42.748-42.748S307.215,40.282,330.786,40.282z"/>
		<path style="fill:#333333;" d="M7.5,400.698h439.479c4.143,0,7.5-3.358,7.5-7.5s-3.357-7.5-7.5-7.5h-16.203l-1.81-82.74h0.273    c4.143,0,7.5-3.358,7.5-7.5s-3.357-7.5-7.5-7.5h-0.602l-0.93-42.498c2.823-1.077,4.831-3.802,4.831-7.002    c0-3.317-2.155-6.125-5.14-7.115l-0.887-40.531c3.437-0.685,6.027-3.716,6.027-7.354c0-3.75-2.755-6.848-6.35-7.403l-0.281-12.853    c-0.174-7.965-5.189-14.815-12.169-17.736v-6.008c0-4.142-3.357-7.5-7.5-7.5s-7.5,3.358-7.5,7.5v6.008    c-6.979,2.921-11.995,9.771-12.17,17.736l-0.281,12.854c-3.595,0.555-6.35,3.653-6.35,7.403c0,3.638,2.59,6.669,6.027,7.354    l-0.887,40.531c-2.985,0.99-5.14,3.798-5.14,7.115c0,3.201,2.009,5.926,4.831,7.002l-0.93,42.498h-0.601    c-4.143,0-7.5,3.358-7.5,7.5s3.357,7.5,7.5,7.5h0.272l-1.81,82.74h-22.898v-91.897c0-4.131-3.221-7.48-7.348-7.499    c0,0,0-10.044,0-14.993c0-14.351-9.893-26.431-23.217-29.787v-3.345c0-4.142-3.357-7.5-7.5-7.5s-7.5,3.358-7.5,7.5v3.345    c-13.323,3.356-23.217,15.437-23.217,29.787c0,3.073,0,14.991,0,14.991h-5.585v-24.546c4.756-8.907,7.378-18.866,7.602-28.935    c0.48-21.563-9.743-41.892-27.351-54.381c-11.604-8.225-21.357-16.336-29.816-24.795l-0.133-0.133v-24.647    c0-4.142-3.357-7.5-7.5-7.5s-7.5,3.358-7.5,7.5v24.64l-0.142,0.142c-9.52,9.528-18.903,17.386-28.684,24.021    c-17.84,12.086-28.49,32.154-28.49,53.681c0,10.659,2.628,21.159,7.617,30.501v24.452h-5.584c0,0,0-8.543,0-14.991    c0-14.351-9.893-26.431-23.217-29.787v-3.345c0-4.142-3.357-7.5-7.5-7.5s-7.5,3.358-7.5,7.5v3.345    c-13.323,3.356-23.217,15.437-23.217,29.787c0,3.823,0,14.993,0,14.993c-4.129,0.015-7.349,3.366-7.349,7.499v91.897H72.776    l-1.81-82.74h0.273c4.143,0,7.5-3.358,7.5-7.5s-3.357-7.5-7.5-7.5h-0.602l-0.93-42.498c2.823-1.077,4.831-3.802,4.831-7.002    c0-3.317-2.155-6.125-5.14-7.115l-0.887-40.531c3.437-0.685,6.027-3.716,6.027-7.354c0-3.75-2.755-6.848-6.35-7.403l-0.281-12.853    c-0.174-7.965-5.189-14.815-12.169-17.736v-6.008c0-4.142-3.357-7.5-7.5-7.5s-7.5,3.358-7.5,7.5v6.008    c-6.979,2.921-11.995,9.771-12.17,17.736l-0.281,12.854c-3.595,0.555-6.35,3.653-6.35,7.403c0,3.638,2.59,6.669,6.027,7.354    l-0.887,40.531c-2.985,0.99-5.14,3.798-5.14,7.115c0,3.201,2.009,5.926,4.831,7.002l-0.93,42.498h-0.601    c-4.143,0-7.5,3.358-7.5,7.5s3.357,7.5,7.5,7.5h0.272l-1.81,82.74H7.5c-4.143,0-7.5,3.358-7.5,7.5S3.357,400.698,7.5,400.698z     M244.382,385.698h-34.286v-41.133c0-15.904,12.612-21.044,17.15-22.378c4.401,1.294,17.136,6.42,17.136,22.412V385.698z     M259.382,385.698v-41.133c0-24.875-20.081-35.385-30.699-37.466c-0.953-0.187-1.935-0.187-2.886,0    c-10.619,2.082-30.701,12.591-30.701,37.5v41.099H185.04v-84.397h84.397v84.397H259.382z M401.565,163.531    c0.056-2.521,2.152-4.573,4.674-4.573s4.617,2.051,4.673,4.572l0.272,12.428h-9.891L401.565,163.531z M411.512,190.958l0.875,40    H400.09l0.875-40H411.512z M399.762,245.958h12.953l0.919,42h-14.791L399.762,245.958z M398.515,302.958h15.447l1.81,82.74    h-19.067L398.515,302.958z M320.372,255.612c0.122,0.006,0.612,0.006,0.734,0c5.796,0.135,10.83,3.409,13.441,8.198h-27.616    C309.543,259.021,314.576,255.747,320.372,255.612z M305.146,278.81h31.191v7.491h-31.191V278.81z M343.804,301.301v84.397    h-59.366v-84.397H343.804z M199.331,190.083c9.556-6.483,18.721-14.005,27.913-22.915c8.346,8.01,17.796,15.73,28.769,23.507    c13.538,9.603,21.399,25.233,21.03,41.812c-0.151,6.801-1.752,13.531-4.622,19.714h-90.406    c-2.999-6.504-4.592-13.624-4.592-20.854C177.423,214.803,185.611,199.378,199.331,190.083z M185.04,267.202h84.397v19.1H185.04    V267.202z M118.146,278.81h31.191v7.491h-31.191V278.81z M133.372,255.612c0.122,0.006,0.612,0.006,0.734,0    c5.796,0.135,10.83,3.409,13.441,8.198h-27.616C122.543,259.021,127.576,255.747,133.372,255.612z M110.674,301.301h59.366v84.397    h-59.366V301.301z M43.565,163.531c0.056-2.521,2.152-4.573,4.674-4.573s4.617,2.051,4.673,4.572l0.272,12.428h-9.891    L43.565,163.531z M53.512,190.958l0.875,40H42.09l0.875-40H53.512z M41.762,245.958h12.953l0.919,42H40.843L41.762,245.958z     M55.962,302.958l1.81,82.74H38.705l1.81-82.74H55.962z"/>
		<path style="fill:#333333;" d="M446.979,414.197H7.5c-4.143,0-7.5,3.358-7.5,7.5s3.357,7.5,7.5,7.5h439.479    c4.143,0,7.5-3.358,7.5-7.5S451.121,414.197,446.979,414.197z"/>
	</g>
</g>















</svg>
